<?xml version="1.0" encoding="utf-8"?>
<!DOCTYPE svg PUBLIC "-//W3C//DTD SVG 1.1//EN" "http://www.w3.org/Graphics/SVG/1.1/DTD/svg11.dtd">
<svg version="1.1" id="Layer_1" xmlns="http://www.w3.org/2000/svg" xmlns:xlink="http://www.w3.org/1999/xlink" x="0px" y="0px"
	 viewBox="0 0 935.4 311.8" enable-background="new 0 0 935.4 311.8" xml:space="preserve">
<path fill="#3A3A3A" d="M189.1,163.9c0.2-5.5,0.4-11.1,0.7-16.7c0.1-2.1-0.8-3.5-2.7-4.2c-3.7-1.4-7.4-2.7-11.1-4
	c-1.1-0.4-3.3-1.3-5-1.9l-1.7,1.1c0,0,0.1,0,0.1,0c1.3,0.5,4.7,1.9,6,2.3c3.6,1.3,7.4,2.6,11,4c1.3,0.5,1.8,1.2,1.7,2.6
	c-0.3,5.6-0.5,11.2-0.7,16.7l-0.1,3.6c0,0.6,0,1.1,0.1,1.6c0,0.1,0,0.3,0,0.4c-0.1,0.4-0.4,0.7-1.2,1.2c-2,1.2-4.1,2.3-6.2,3.3
	l-1.2,0.6c-1.5,0.8-3.1,1.6-4.6,2.4c-2.1,1.1-4.2,2.2-6.3,3.3c-2.7,1.3-5.4,2.8-8,4.2l0,0c-2.3,1.2-4.8,2.5-7.2,3.7
	c-11,5.6-20,10.3-28.6,15c-3.8,2.1-7.6,2.7-11.6,2c-1.1-0.2-2.3-0.8-3.4-1.3c-0.5-0.2-1-0.5-1.5-0.7c-2-0.9-4-1.7-6-2.6l0,0
	c-4.3-1.9-8.7-3.8-13.1-5.6c-1.5-0.6-2.6-1.5-3.3-2.7c-0.4-0.6-0.8-1.3-1.2-2c-0.9-1.5-1.7-3-2.9-4.4c-2.4-2.9-5.7-6.4-10.6-8.3
	c-1.7-0.7-3.4-1-4.9-1c-2.9,0-5.5,1.1-7.7,3.4c-0.8,0.8-1.5,0.9-2.6,0.4c-2.7-1.1-5.4-2.3-7.9-3.4l-0.1,0c-2.4-1-4.9-2.1-7.3-3.1
	c-0.5-0.2-1.1-0.4-1.6-0.6c-0.8-0.3-1.5-0.5-2.2-0.9l-0.2-0.1c-1-0.6-1.2-0.7-1.2-1.1l-0.1-4.6c0-3.8-0.1-7.7-0.1-11.5
	c0-2.2,0-4.8,0-7.2c0-0.8,0.3-1.4,1.4-1.9c4.6-1.8,9.2-3.7,13.7-5.5l0.1,0c1.4-0.6,2.8-1.2,4.2-1.7l0.3,0.2v-0.1
	c2.6,1.6,5.7,3,9.2,4.3c0.1,8.9,21.1,15.8,47.9,15.8c26.8,0,47.8-7,47.9-15.8c4.6-1.7,8.5-3.7,11.4-5.8c0.1,0,0.2,0.1,0.3,0.1
	l0.1-0.1l-0.3-0.1c4.1-3,6.5-6.4,6.5-10c0-12.8-17.3-59-65.8-59s-65.8,46.2-65.8,59c0,3.7,2.5,7.3,7,10.4c-1.1,0.5-2.3,0.9-3.4,1.4
	l-0.1,0c-4.5,1.8-9.1,3.7-13.6,5.5c-1.6,0.6-2.4,1.7-2.4,3.3c-0.1,2.5,0,5,0,7.3c0,3.8,0.1,7.7,0.1,11.5l0.1,4.7
	c0,0.4,0.1,0.7,0.2,1c0,0.9,0,1.8,0,2.7c0.2,7.9,0.4,15.8,0.6,23.7c0,2.8,1.2,4.5,3.7,5.7c23.6,10.8,47.1,21.5,70.7,32.3
	c5.4,2.5,10.7,2.3,15.9-0.7c5.7-3.2,11.4-6.5,17.1-9.7c3.3-1.9,6.7-3.7,10-5.5c11.2-6.3,22.4-12.5,33.6-18.8
	c1.6-0.9,2.6-2.2,2.7-4.2c0.3-6.4,0.7-12.9,1-19.3c0.2-2.9,0.3-5.7,0.4-8.6c-0.1,0.1-0.2,0.2-0.3,0.3c0-0.1,0-0.1,0.1-0.2l0-0.1
	l0-0.1c0-0.2,0-0.4,0-0.6c0-0.5-0.1-0.9-0.1-1.4L189.1,163.9z M111.5,157.1c-24.4,0-45.2-6.2-46.3-13.7c11.9,4.1,28.2,6.7,46.3,6.7
	s34.4-2.6,46.3-6.7C156.7,150.9,135.9,157.1,111.5,157.1z"/>
<g>
	<path fill="#3A3A3A" d="M310.2,89.8h19.7c5.3,0,9.6,2.1,9.6,4.8l0,0c0,2.6-4.3,4.8-9.6,4.8h-19.7c-5.3,0-9.6-2.1-9.6-4.8l0,0
		C300.6,92,304.9,89.8,310.2,89.8z"/>
	<path fill="#3A3A3A" d="M392.9,118.4c-28.2,0-51.1,22.9-51.1,51.1c0,28.2,22.9,51.1,51.1,51.1c28.2,0,51.1-22.9,51.1-51.1
		C443.9,141.3,421.1,118.4,392.9,118.4z M392.9,216.6c-26,0-47.1-21.1-47.1-47.1c0-26,21.1-47.1,47.1-47.1c26,0,47.1,21.1,47.1,47.1
		C440,195.5,418.9,216.6,392.9,216.6z"/>
	<path fill="#3A3A3A" d="M392.9,126.4c-23.8,0-43.1,19.3-43.1,43.1c0,23.8,19.3,43.1,43.1,43.1c23.8,0,43.1-19.3,43.1-43.1
		C436,145.7,416.7,126.4,392.9,126.4z M392.9,209.9c-22.3,0-40.4-18.1-40.4-40.4s18.1-40.4,40.4-40.4c22.3,0,40.4,18.1,40.4,40.4
		S415.2,209.9,392.9,209.9z"/>
	<path fill="#3A3A3A" d="M442.2,100.7l-19.1-30.2c-21.5-3.4-42-3.5-61.6-0.1l-19.3,30.8h0l-50.3,0.2c-13.7-0.1-23.4,5.3-29.3,16
		l0.1,114c14.8,9.4,29.8,8,45.6-0.3h167.9V120.8C475.4,107.4,461.6,100.5,442.2,100.7z M288.7,125.9c-4.7,0-8.4-2.8-8.4-6.2
		c0-3.4,3.8-6.2,8.4-6.2s8.4,2.8,8.4,6.2C297.1,123.1,293.3,125.9,288.7,125.9z M380.8,99.2h24.4c9.5,0,17.2,0.7,17.2,1.7
		c0,0.9-7.7,1.7-17.2,1.7h-24.4c-9.5,0-17.2-0.7-17.2-1.7C363.6,99.9,371.3,99.2,380.8,99.2z M311.5,218.7c0,2.5-0.7,4.5-1.6,4.5
		s-1.6-2-1.6-4.5v-84.8c0-2.5,0.7-4.5,1.6-4.5s1.6,2,1.6,4.5V218.7z M392.9,223.3c-29.8,0-53.9-24.1-53.9-53.9s24.1-53.9,53.9-53.9
		c29.8,0,53.9,24.1,53.9,53.9S422.6,223.3,392.9,223.3z M461.3,177.2l-12.8,2.9c1.4-4.2,1.5-14.7,0.2-18.5l12.6,1.8
		C463.2,167.4,463.3,173,461.3,177.2z"/>
</g>
<g>
	<path fill="#3A3A3A" d="M614.5,143.3h-21.1c-1.5,0-2.6,1.2-2.6,2.6v21.1c0,1.5,1.2,2.6,2.6,2.6h21.1c1.5,0,2.6-1.2,2.6-2.6V146
		C617.1,144.5,615.9,143.3,614.5,143.3z"/>
	<path fill="#3A3A3A" d="M561.8,136.7h-2.4c-1.5,0-2.6,1.2-2.6,2.6v34.4c0,1.5,1.2,2.6,2.6,2.6h2.4c1.5,0,2.6-1.2,2.6-2.6v-34.4
		C564.5,137.9,563.3,136.7,561.8,136.7z"/>
	<path fill="#3A3A3A" d="M704.5,140.6c1.5,0,2.6-1.2,2.6-2.6v-20.7c0-1.5-1.2-2.6-2.6-2.6h-3.9c-1.6-3.7-5.4-6.3-9.7-6.3H558.5
		c-5.8,0-10.6,4.7-10.6,10.6V199c0,5.8,4.7,10.6,10.6,10.6h6.1c0.3,1.1,1.3,1.9,2.5,1.9h7.7c1.2,0,2.2-0.8,2.5-1.9h13.4
		c0.3,1.1,1.3,1.9,2.5,1.9H617c1.2,0,2.2-0.8,2.5-1.9H636c0.3,1.1,1.3,1.9,2.5,1.9h7.7c1.2,0,2.2-0.8,2.5-1.9h42.2
		c4.2,0,7.8-2.4,9.5-5.9h4c1.5,0,2.6-1.2,2.6-2.6v-25.7c0-1.5-1.2-2.6-2.6-2.6h-2.9v-3.1h2.9c1.5,0,2.6-1.2,2.6-2.6v-20.7
		c0-1.5-1.2-2.6-2.6-2.6h-2.9v-3L704.5,140.6L704.5,140.6z M659.3,117.2c0,1.6-1.3,2.9-2.9,2.9c-1.6,0-2.9-1.3-2.9-2.9
		s1.3-2.9,2.9-2.9C658,114.3,659.3,115.6,659.3,117.2z M556.8,114.3c1.6,0,2.9,1.3,2.9,2.9c0,1.6-1.3,2.9-2.9,2.9
		c-1.6,0-2.9-1.3-2.9-2.9S555.2,114.3,556.8,114.3z M556.8,203.6c-1.6,0-2.9-1.3-2.9-2.9c0-1.6,1.3-2.9,2.9-2.9
		c1.6,0,2.9,1.3,2.9,2.9C559.7,202.3,558.4,203.6,556.8,203.6z M653.5,200.7c0-1.6,1.3-2.9,2.9-2.9c1.6,0,2.9,1.3,2.9,2.9
		s-1.3,2.9-2.9,2.9C654.8,203.6,653.5,202.3,653.5,200.7z M697.5,143.6h-21.8c-1.5,0-2.6,1.2-2.6,2.6v20.7c0,1.5,1.2,2.6,2.6,2.6
		h21.8v3.1h-28.4c-1.5,0-2.6,1.2-2.6,2.6V201c0,1.5,1.2,2.6,2.6,2.6h26.5c-1.2,1.2-2.9,2-4.7,2h-29.7c1.3-1.2,2.1-3,2.1-4.9
		c0-3.8-3.1-6.9-6.9-6.9c-3.8,0-6.9,3.1-6.9,6.9c0,1.9,0.8,3.6,2.1,4.9h-2.7v-18c0-1.5-1.2-2.6-2.6-2.6h-7.7c-1.5,0-2.6,1.2-2.6,2.6
		v18h-16.2v-18.1c0-1.5-1.2-2.6-2.6-2.6h-23.7c-1.5,0-2.6,1.2-2.6,2.6v18.1h-13.2v-7.1c0-1.5-1.2-2.6-2.6-2.6h-7.7
		c-1.5,0-2.6,1.2-2.6,2.6v7.1h-2.8c1.3-1.2,2.1-3,2.1-4.9c0-3.8-3.1-6.9-6.9-6.9c-1.9,0-3.6,0.8-4.9,2.1V122c1.2,1.3,3,2.1,4.9,2.1
		c3.8,0,6.9-3.1,6.9-6.9c0-1.9-0.8-3.6-2.1-4.9h2.8c-0.1,0.2-0.1,0.5-0.1,0.7v6c0,1.5,1.2,2.6,2.6,2.6h79.2c1.5,0,2.6-1.2,2.6-2.6
		v-6c0-0.3,0-0.5-0.1-0.7h2.8c-1.3,1.2-2.1,3-2.1,4.9c0,3.8,3.1,6.9,6.9,6.9c3.8,0,6.9-3.1,6.9-6.9c0-1.9-0.8-3.6-2.1-4.9h29.7
		c2,0,3.8,0.9,5,2.3h-20.1c-1.5,0-2.6,1.2-2.6,2.6v20.7c0,1.5,1.2,2.6,2.6,2.6h21.8L697.5,143.6L697.5,143.6z"/>
</g>
<path fill="#3A3A3A" d="M902.3,238.4c0,3.2-2.6,5.9-5.9,5.9H773.1c-3.2,0-5.9-2.6-5.9-5.9V74.7c0-3.2,2.6-5.9,5.9-5.9h123.3
	c3.2,0,5.9,2.6,5.9,5.9V238.4z M834.8,232.5c-2.2,0-4,1.8-4,4s1.8,4,4,4c2.2,0,4-1.8,4-4S837,232.5,834.8,232.5z M834.8,77.9
	c0.5,0,0.9-0.4,0.9-0.9c0-0.5-0.4-0.9-0.9-0.9c-0.5,0-0.9,0.4-0.9,0.9C833.8,77.4,834.3,77.9,834.8,77.9z M780.4,84.6v143.8h108.7
	V84.6H780.4z"/>
<g>
	<path fill="none" stroke="#3A3A3A" stroke-width="6" stroke-miterlimit="10" d="M111.5,244.4c0,0,0,10.4,0,23.2
		s12.8,23.2,28.3,23.2h224.7c15.6,0,28.3-11.6,28.3-25.7c0-14.1,0-25.7,0-25.7"/>
</g>
<g>
	<path fill="none" stroke="#3A3A3A" stroke-width="6" stroke-miterlimit="10" d="M627.5,219.3v43.1c0,15.6,12.8,28.3,28.3,28.3
		h150.6c15.6,0,28.3-9.1,28.3-20.2s0-20.2,0-20.2"/>
</g>
<g>
	<path fill="none" stroke="#3A3A3A" stroke-width="6" stroke-miterlimit="10" d="M627.5,99.5V49.4c0-15.6-12.8-28.3-28.3-28.3h-178
		c-15.6,0-28.3,8.9-28.3,19.7s0,19.7,0,19.7"/>
</g>
<text transform="matrix(1 0 0 1 487.6382 48.0645)" fill="#3A3A3A" font-family="'HelveticaNeue'" font-size="20">USB</text>
<text transform="matrix(1 0 0 1 691.4688 280.158)" fill="#3A3A3A" font-family="'HelveticaNeue'" font-size="20">Web Server</text>
<text transform="matrix(1 0 0 1 173.1744 280.1582)" fill="#3A3A3A" font-family="'HelveticaNeue'" font-size="20">Remote Trigger</text>
</svg>
